<svg version="1.1" id="Layer_1" xmlns="http://www.w3.org/2000/svg" xmlns:xlink="http://www.w3.org/1999/xlink" x="0px" y="0px"
	 width="600px" height="180px" viewBox="0 0 600 180" style="enable-background:new 0 0 600 180;" xml:space="preserve">
<style type="text/css">
<![CDATA[
	.st0{fill:#4B4540;}
	.st1{clip-path:url(#SVGID_2_);fill:#7FC896;}
	.st2{clip-path:url(#SVGID_2_);fill:#174746;}
	.st3{clip-path:url(#SVGID_2_);fill:#1D5D2F;}
	.st4{clip-path:url(#SVGID_2_);fill:#216968;}
	.st5{clip-path:url(#SVGID_2_);fill:#24AD98;}
	.st6{clip-path:url(#SVGID_2_);fill:#267C3E;}
	.st7{clip-path:url(#SVGID_2_);fill:#298D89;}
	.st8{clip-path:url(#SVGID_2_);fill:#FFFFFF;}
	.st9{clip-path:url(#SVGID_2_);fill:#33A849;}
	.st10{clip-path:url(#SVGID_2_);fill:#3DBDBD;}
]]>
</style>
<g>
	<path class="st0" d="M165.688,80.307c0-2.186-0.274-3.766-0.82-4.74c-0.547-0.973-1.567-1.46-3.06-1.46
		c-0.534,0-1.12,0.04-1.76,0.12c-0.64,0.08-1.12,0.147-1.44,0.2v16.879h-4.84v-20.24c0.933-0.266,2.153-0.52,3.66-0.76
		c1.506-0.24,3.1-0.36,4.78-0.36c1.44,0,2.62,0.187,3.54,0.56s1.686,0.867,2.3,1.48c0.293-0.213,0.667-0.44,1.12-0.68
		c0.453-0.24,0.96-0.46,1.52-0.66c0.56-0.2,1.153-0.366,1.78-0.5c0.626-0.133,1.26-0.2,1.9-0.2c1.626,0,2.966,0.233,4.02,0.7
		c1.053,0.467,1.88,1.12,2.48,1.96c0.6,0.84,1.013,1.854,1.24,3.04c0.227,1.187,0.34,2.487,0.34,3.9v11.759h-4.84v-11
		c0-2.186-0.267-3.766-0.8-4.74c-0.534-0.973-1.56-1.46-3.08-1.46c-0.774,0-1.507,0.127-2.2,0.38s-1.213,0.5-1.56,0.74
		c0.213,0.667,0.36,1.374,0.44,2.12c0.08,0.747,0.12,1.547,0.12,2.4v11.56h-4.84V80.307z"/>
	<path class="st0" d="M195.327,69.867c1.6,0,2.946,0.2,4.04,0.6c1.093,0.4,1.966,0.96,2.62,1.68c0.653,0.72,1.12,1.594,1.4,2.62
		c0.28,1.027,0.42,2.154,0.42,3.38v12.68c-0.747,0.16-1.874,0.354-3.38,0.58c-1.507,0.226-3.207,0.34-5.1,0.34
		c-1.254,0-2.4-0.12-3.44-0.36s-1.927-0.626-2.66-1.16c-0.734-0.533-1.307-1.226-1.72-2.08c-0.414-0.853-0.62-1.906-0.62-3.16
		c0-1.2,0.233-2.213,0.7-3.04c0.466-0.826,1.1-1.5,1.9-2.02c0.8-0.52,1.726-0.893,2.78-1.12c1.053-0.226,2.153-0.34,3.3-0.34
		c0.533,0,1.093,0.034,1.68,0.1c0.586,0.067,1.213,0.18,1.88,0.34v-0.8c0-0.56-0.067-1.093-0.2-1.6
		c-0.134-0.506-0.367-0.953-0.7-1.34c-0.333-0.386-0.774-0.686-1.32-0.9c-0.547-0.213-1.234-0.32-2.06-0.32
		c-1.12,0-2.147,0.08-3.08,0.24c-0.934,0.16-1.694,0.347-2.28,0.56l-0.6-3.92c0.613-0.213,1.506-0.426,2.68-0.64
		C192.74,69.974,193.993,69.867,195.327,69.867z M195.727,87.907c1.493,0,2.626-0.08,3.4-0.24v-5.36
		c-0.267-0.08-0.654-0.16-1.16-0.24c-0.507-0.08-1.067-0.12-1.68-0.12c-0.534,0-1.074,0.04-1.62,0.12
		c-0.547,0.08-1.04,0.227-1.48,0.44s-0.793,0.514-1.06,0.9c-0.267,0.387-0.4,0.874-0.4,1.46c0,1.147,0.36,1.94,1.08,2.38
		S194.5,87.907,195.727,87.907z"/>
	<path class="st0" d="M228.567,80.867c0,1.6-0.207,3.067-0.62,4.4c-0.414,1.334-1.007,2.48-1.78,3.44
		c-0.774,0.96-1.74,1.707-2.9,2.24c-1.16,0.533-2.474,0.8-3.94,0.8c-0.987,0-1.894-0.12-2.72-0.36c-0.827-0.24-1.507-0.506-2.04-0.8
		v8.12h-4.84v-27.64c0.986-0.266,2.2-0.52,3.64-0.76c1.44-0.24,2.96-0.36,4.56-0.36c1.653,0,3.133,0.253,4.44,0.76
		c1.306,0.507,2.42,1.234,3.34,2.18c0.92,0.947,1.626,2.094,2.12,3.44C228.32,77.674,228.567,79.187,228.567,80.867z
		 M223.607,80.947c0-2.16-0.487-3.84-1.46-5.04c-0.974-1.2-2.54-1.8-4.7-1.8c-0.454,0-0.927,0.02-1.42,0.06
		c-0.494,0.04-0.98,0.127-1.46,0.26v11.96c0.426,0.293,0.993,0.567,1.7,0.82c0.706,0.254,1.46,0.38,2.26,0.38
		c1.76,0,3.046-0.6,3.86-1.8C223.2,84.587,223.607,82.974,223.607,80.947z"/>
	<path class="st0" d="M245.846,69.867c1.6,0,2.946,0.2,4.04,0.6c1.093,0.4,1.966,0.96,2.62,1.68c0.653,0.72,1.12,1.594,1.4,2.62
		c0.28,1.027,0.42,2.154,0.42,3.38v12.68c-0.747,0.16-1.874,0.354-3.38,0.58c-1.507,0.226-3.207,0.34-5.1,0.34
		c-1.254,0-2.4-0.12-3.44-0.36s-1.927-0.626-2.66-1.16c-0.734-0.533-1.307-1.226-1.72-2.08c-0.414-0.853-0.62-1.906-0.62-3.16
		c0-1.2,0.233-2.213,0.7-3.04c0.466-0.826,1.1-1.5,1.9-2.02c0.8-0.52,1.726-0.893,2.78-1.12c1.053-0.226,2.153-0.34,3.3-0.34
		c0.533,0,1.093,0.034,1.68,0.1c0.586,0.067,1.213,0.18,1.88,0.34v-0.8c0-0.56-0.067-1.093-0.2-1.6
		c-0.134-0.506-0.367-0.953-0.7-1.34c-0.333-0.386-0.774-0.686-1.32-0.9c-0.547-0.213-1.234-0.32-2.06-0.32
		c-1.12,0-2.147,0.08-3.08,0.24c-0.934,0.16-1.694,0.347-2.28,0.56l-0.6-3.92c0.613-0.213,1.506-0.426,2.68-0.64
		C243.259,69.974,244.512,69.867,245.846,69.867z M246.246,87.907c1.493,0,2.626-0.08,3.4-0.24v-5.36
		c-0.267-0.08-0.654-0.16-1.16-0.24c-0.507-0.08-1.067-0.12-1.68-0.12c-0.534,0-1.074,0.04-1.62,0.12
		c-0.547,0.08-1.04,0.227-1.48,0.44s-0.793,0.514-1.06,0.9c-0.267,0.387-0.4,0.874-0.4,1.46c0,1.147,0.36,1.94,1.08,2.38
		S245.019,87.907,246.246,87.907z"/>
	<path class="st0" d="M267.526,91.707c-1.44-0.027-2.634-0.188-3.58-0.48c-0.947-0.292-1.7-0.712-2.26-1.259
		c-0.56-0.546-0.954-1.227-1.18-2.04s-0.34-1.74-0.34-2.78v-24.08l4.84-0.8v23.96c0,0.587,0.046,1.08,0.14,1.48
		c0.093,0.4,0.26,0.74,0.5,1.02c0.24,0.28,0.566,0.494,0.98,0.64c0.413,0.147,0.94,0.26,1.58,0.34L267.526,91.707z"/>
	<path class="st0" d="M279.406,91.707c-1.44-0.027-2.634-0.188-3.58-0.48c-0.947-0.292-1.7-0.712-2.26-1.259
		c-0.56-0.546-0.954-1.227-1.18-2.04s-0.34-1.74-0.34-2.78v-24.08l4.84-0.8v23.96c0,0.587,0.046,1.08,0.14,1.48
		c0.093,0.4,0.26,0.74,0.5,1.02c0.24,0.28,0.566,0.494,0.98,0.64c0.413,0.147,0.94,0.26,1.58,0.34L279.406,91.707z"/>
	<path class="st0" d="M289.085,64.867l4.84-0.8v6.32h7.44v4.04h-7.44v8.52c0,1.68,0.267,2.88,0.801,3.6
		c0.532,0.72,1.439,1.08,2.72,1.08c0.88,0,1.66-0.093,2.34-0.28c0.68-0.187,1.22-0.36,1.62-0.52l0.8,3.84
		c-0.56,0.24-1.294,0.487-2.2,0.74s-1.974,0.38-3.2,0.38c-1.493,0-2.739-0.2-3.739-0.6c-1-0.4-1.794-0.98-2.38-1.74
		c-0.587-0.76-1-1.68-1.24-2.76s-0.36-2.313-0.36-3.7V64.867z"/>
	<path class="st0" d="M306.045,91.307v-30.24l4.84-0.8v10.36c0.533-0.186,1.153-0.346,1.86-0.48c0.706-0.133,1.406-0.2,2.1-0.2
		c1.68,0,3.073,0.233,4.18,0.7c1.106,0.467,1.993,1.12,2.66,1.96c0.667,0.84,1.141,1.847,1.42,3.02c0.28,1.174,0.42,2.48,0.42,3.92
		v11.759h-4.84v-11c0-1.12-0.073-2.073-0.22-2.86s-0.387-1.426-0.72-1.92c-0.334-0.493-0.78-0.854-1.34-1.08
		c-0.561-0.227-1.254-0.34-2.08-0.34c-0.641,0-1.294,0.067-1.96,0.2c-0.667,0.134-1.16,0.254-1.48,0.36v16.64H306.045z"/>
	<path class="st0" d="M328.164,80.947c0-1.84,0.273-3.453,0.82-4.84c0.546-1.386,1.272-2.54,2.18-3.46
		c0.906-0.92,1.946-1.613,3.12-2.08c1.173-0.466,2.373-0.7,3.6-0.7c2.88,0,5.127,0.894,6.74,2.68s2.42,4.454,2.42,8
		c0,0.267-0.007,0.566-0.02,0.9c-0.014,0.333-0.034,0.634-0.061,0.9h-13.8c0.133,1.68,0.727,2.98,1.78,3.9
		c1.053,0.92,2.58,1.38,4.58,1.38c1.173,0,2.246-0.106,3.22-0.32c0.973-0.213,1.74-0.44,2.3-0.68l0.641,3.96
		c-0.268,0.134-0.634,0.274-1.101,0.421c-0.467,0.146-1,0.279-1.6,0.399c-0.601,0.12-1.247,0.22-1.94,0.3s-1.399,0.12-2.12,0.12
		c-1.84,0-3.439-0.274-4.8-0.819c-1.36-0.547-2.479-1.307-3.36-2.281c-0.88-0.973-1.533-2.12-1.96-3.44
		S328.164,82.521,328.164,80.947z M342.204,78.787c0-0.666-0.094-1.3-0.28-1.9s-0.46-1.12-0.819-1.56
		c-0.36-0.44-0.801-0.786-1.32-1.04c-0.521-0.253-1.14-0.38-1.86-0.38c-0.746,0-1.399,0.14-1.96,0.42
		c-0.56,0.28-1.033,0.647-1.42,1.1c-0.387,0.454-0.687,0.974-0.899,1.56c-0.214,0.587-0.36,1.187-0.44,1.8H342.204z"/>
	<path class="st0" d="M357.244,64.867l4.84-0.8v6.32h7.44v4.04h-7.44v8.52c0,1.68,0.267,2.88,0.801,3.6
		c0.532,0.72,1.439,1.08,2.72,1.08c0.88,0,1.66-0.093,2.34-0.28c0.68-0.187,1.22-0.36,1.62-0.52l0.8,3.84
		c-0.56,0.24-1.294,0.487-2.2,0.74s-1.974,0.38-3.2,0.38c-1.493,0-2.739-0.2-3.739-0.6c-1-0.4-1.794-0.98-2.38-1.74
		c-0.587-0.76-1-1.68-1.24-2.76s-0.36-2.313-0.36-3.7V64.867z"/>
	<path class="st0" d="M374.204,91.307v-30.24l4.84-0.8v10.36c0.533-0.186,1.153-0.346,1.86-0.48c0.706-0.133,1.406-0.2,2.1-0.2
		c1.68,0,3.073,0.233,4.18,0.7c1.106,0.467,1.993,1.12,2.66,1.96c0.667,0.84,1.141,1.847,1.42,3.02c0.28,1.174,0.42,2.48,0.42,3.92
		v11.759h-4.84v-11c0-1.12-0.073-2.073-0.22-2.86s-0.387-1.426-0.72-1.92c-0.334-0.493-0.78-0.854-1.34-1.08
		c-0.561-0.227-1.254-0.34-2.08-0.34c-0.641,0-1.294,0.067-1.96,0.2c-0.667,0.134-1.16,0.254-1.48,0.36v16.64H374.204z"/>
	<path class="st0" d="M402.884,64.267c0,0.907-0.294,1.627-0.881,2.16c-0.587,0.534-1.279,0.8-2.08,0.8
		c-0.826,0-1.533-0.266-2.119-0.8c-0.587-0.533-0.881-1.253-0.881-2.16c0-0.933,0.294-1.666,0.881-2.2
		c0.586-0.533,1.293-0.8,2.119-0.8c0.801,0,1.493,0.267,2.08,0.8C402.59,62.601,402.884,63.334,402.884,64.267z M402.363,91.307
		h-4.84V70.387h4.84V91.307z"/>
	<path class="st0" d="M408.523,71.067c0.933-0.266,2.146-0.52,3.64-0.76s3.146-0.36,4.96-0.36c1.707,0,3.134,0.233,4.28,0.7
		c1.146,0.467,2.06,1.12,2.74,1.96c0.68,0.84,1.16,1.854,1.439,3.04c0.28,1.187,0.42,2.487,0.42,3.9v11.759h-4.84v-11
		c0-1.12-0.073-2.073-0.22-2.86s-0.387-1.426-0.72-1.92c-0.334-0.493-0.787-0.854-1.36-1.08s-1.273-0.34-2.1-0.34
		c-0.614,0-1.254,0.04-1.92,0.12c-0.667,0.08-1.16,0.147-1.48,0.2v16.879h-4.84V71.067z"/>
	<path class="st0" d="M449.203,89.187c0,3.333-0.848,5.774-2.54,7.321c-1.694,1.545-4.287,2.319-7.78,2.319
		c-1.28,0-2.527-0.106-3.74-0.319c-1.214-0.215-2.313-0.494-3.3-0.841l0.88-4.12c0.826,0.347,1.767,0.627,2.82,0.84
		c1.053,0.213,2.193,0.32,3.42,0.32c1.946,0,3.333-0.4,4.16-1.199c0.826-0.801,1.239-1.988,1.239-3.561v-0.8
		c-0.479,0.24-1.113,0.48-1.899,0.72c-0.787,0.24-1.687,0.36-2.7,0.36c-1.334,0-2.554-0.213-3.66-0.64
		c-1.106-0.426-2.054-1.053-2.84-1.88c-0.787-0.826-1.4-1.86-1.84-3.1c-0.44-1.24-0.66-2.673-0.66-4.3c0-1.52,0.233-2.92,0.7-4.2
		c0.466-1.28,1.146-2.373,2.04-3.28c0.893-0.906,1.979-1.613,3.26-2.12c1.28-0.506,2.733-0.76,4.36-0.76
		c1.573,0,3.066,0.12,4.479,0.36s2.613,0.494,3.601,0.76V89.187z M435.723,80.307c0,2.054,0.446,3.554,1.34,4.5
		c0.894,0.947,2.047,1.42,3.46,1.42c0.773,0,1.5-0.106,2.181-0.32c0.68-0.213,1.232-0.466,1.659-0.76v-10.84
		c-0.347-0.08-0.773-0.153-1.279-0.22c-0.507-0.066-1.147-0.1-1.92-0.1c-1.761,0-3.107,0.58-4.04,1.74
		C436.189,76.887,435.723,78.414,435.723,80.307z"/>
	<path class="st0" d="M460.603,87.827c1.279,0,2.213-0.153,2.8-0.46c0.586-0.306,0.88-0.833,0.88-1.58
		c0-0.693-0.313-1.266-0.94-1.72c-0.626-0.453-1.659-0.946-3.1-1.48c-0.88-0.32-1.687-0.66-2.42-1.02
		c-0.733-0.36-1.367-0.78-1.9-1.26s-0.953-1.06-1.26-1.74c-0.307-0.68-0.46-1.513-0.46-2.5c0-1.92,0.706-3.433,2.12-4.54
		c1.413-1.106,3.333-1.66,5.76-1.66c1.227,0,2.4,0.114,3.521,0.34c1.12,0.227,1.96,0.447,2.52,0.66l-0.88,3.92
		c-0.534-0.24-1.214-0.46-2.04-0.66c-0.827-0.2-1.787-0.3-2.88-0.3c-0.987,0-1.787,0.167-2.4,0.5c-0.613,0.333-0.92,0.847-0.92,1.54
		c0,0.347,0.061,0.654,0.181,0.92c0.119,0.267,0.326,0.514,0.619,0.74c0.294,0.227,0.681,0.454,1.16,0.68
		c0.48,0.227,1.066,0.46,1.761,0.7c1.146,0.427,2.119,0.847,2.92,1.26c0.8,0.414,1.46,0.88,1.979,1.4
		c0.521,0.52,0.9,1.114,1.141,1.78c0.239,0.667,0.359,1.467,0.359,2.4c0,2-0.74,3.514-2.22,4.54c-1.48,1.026-3.594,1.54-6.34,1.54
		c-1.84,0-3.32-0.153-4.44-0.46s-1.906-0.553-2.359-0.74l0.84-4.04c0.72,0.294,1.58,0.574,2.58,0.84S459.322,87.827,460.603,87.827z
		"/>
</g>
<g>
	<path class="st0" d="M268.04,122v-5.7c-0.951-1.453-1.824-2.856-2.621-4.21c-0.796-1.354-1.536-2.67-2.219-3.949h1.58
		c0.562,1.173,1.18,2.363,1.855,3.569c0.675,1.207,1.38,2.356,2.115,3.45c0.708-1.094,1.403-2.243,2.085-3.45
		c0.682-1.206,1.31-2.396,1.885-3.569h1.48c-0.707,1.266-1.454,2.583-2.24,3.949c-0.787,1.367-1.64,2.757-2.56,4.17V122H268.04z"/>
	<path class="st0" d="M284.159,116.84c0,0.813-0.117,1.554-0.35,2.221c-0.232,0.666-0.561,1.232-0.98,1.699s-0.916,0.83-1.49,1.09
		c-0.572,0.26-1.207,0.391-1.898,0.391c-0.693,0-1.328-0.131-1.901-0.391c-0.573-0.26-1.07-0.623-1.49-1.09
		c-0.42-0.467-0.747-1.033-0.98-1.699c-0.233-0.667-0.35-1.407-0.35-2.221c0-0.812,0.117-1.553,0.35-2.22
		c0.233-0.667,0.56-1.237,0.98-1.71c0.42-0.473,0.917-0.84,1.49-1.1c0.573-0.261,1.208-0.391,1.901-0.391
		c0.691,0,1.326,0.13,1.898,0.391c0.574,0.26,1.07,0.627,1.49,1.1s0.748,1.043,0.98,1.71S284.159,116.027,284.159,116.84z
		 M282.78,116.84c0-1.293-0.301-2.322-0.9-3.09c-0.6-0.767-1.414-1.15-2.439-1.15c-1.027,0-1.841,0.384-2.441,1.15
		c-0.6,0.768-0.9,1.797-0.9,3.09s0.3,2.32,0.9,3.08s1.414,1.141,2.441,1.141c1.025,0,1.84-0.381,2.439-1.141
		S282.78,118.133,282.78,116.84z"/>
	<path class="st0" d="M294.92,121.641c-0.387,0.106-0.907,0.227-1.561,0.359s-1.453,0.2-2.399,0.2c-0.773,0-1.42-0.114-1.94-0.341
		c-0.52-0.227-0.939-0.546-1.26-0.959c-0.32-0.414-0.55-0.914-0.69-1.5c-0.14-0.587-0.21-1.233-0.21-1.94v-5.8h1.301v5.38
		c0,0.733,0.053,1.354,0.159,1.86c0.107,0.506,0.28,0.916,0.521,1.229s0.55,0.54,0.93,0.681c0.38,0.14,0.844,0.209,1.391,0.209
		c0.612,0,1.146-0.033,1.6-0.1s0.74-0.127,0.86-0.18v-9.08h1.3V121.641z"/>
	<path class="st0" d="M301.88,111.46c0.427,0,0.83,0.034,1.21,0.101s0.643,0.133,0.79,0.199l-0.26,1.12
		c-0.107-0.054-0.324-0.11-0.65-0.17c-0.327-0.06-0.757-0.09-1.29-0.09c-0.56,0-1.01,0.04-1.35,0.12
		c-0.341,0.08-0.563,0.146-0.671,0.199V122h-1.3v-9.859c0.333-0.146,0.793-0.297,1.38-0.451
		C300.326,111.537,301.04,111.46,301.88,111.46z"/>
	<path class="st0" d="M318.511,109.84c0.643,2.143,1.284,4.086,1.925,5.828s1.271,3.34,1.894,4.792
		c0.457-1.573,0.919-3.427,1.385-5.559s0.914-4.386,1.345-6.761h1.34c-0.246,1.428-0.49,2.766-0.734,4.014
		c-0.244,1.247-0.5,2.434-0.77,3.56s-0.552,2.206-0.847,3.237c-0.295,1.033-0.617,2.049-0.966,3.049h-1.464
		c-0.313-0.762-0.627-1.523-0.94-2.283s-0.624-1.543-0.933-2.35c-0.308-0.807-0.616-1.648-0.925-2.527
		c-0.309-0.88-0.619-1.812-0.932-2.8c-0.316,0.991-0.631,1.927-0.941,2.807c-0.312,0.882-0.62,1.726-0.927,2.532
		s-0.617,1.59-0.93,2.35c-0.313,0.76-0.634,1.518-0.961,2.271h-1.433c-0.361-1-0.693-2.018-0.994-3.052s-0.582-2.114-0.843-3.241
		c-0.262-1.126-0.51-2.312-0.745-3.559s-0.475-2.582-0.717-4.008h1.4c0.207,1.172,0.415,2.32,0.626,3.448
		c0.211,1.127,0.434,2.218,0.669,3.271c0.234,1.053,0.474,2.049,0.718,2.99c0.244,0.94,0.49,1.811,0.737,2.61
		c0.568-1.479,1.182-3.081,1.839-4.807c0.656-1.726,1.304-3.663,1.942-5.813H318.511z"/>
	<path class="st0" d="M338.099,122c-0.265-0.681-0.508-1.336-0.729-1.964c-0.223-0.628-0.435-1.241-0.638-1.836h-6.771
		c-0.231,0.599-0.458,1.212-0.679,1.841c-0.222,0.629-0.456,1.282-0.703,1.959h-1.42c0.526-1.443,1.023-2.787,1.491-4.033
		c0.469-1.246,0.928-2.426,1.378-3.537s0.896-2.18,1.341-3.205c0.443-1.025,0.91-2.054,1.399-3.084h1.199
		c0.488,1.025,0.952,2.053,1.392,3.08c0.438,1.026,0.884,2.096,1.335,3.207c0.452,1.111,0.909,2.291,1.373,3.539
		s0.975,2.592,1.531,4.033H338.099z M333.329,109.7c-0.502,1.151-0.99,2.319-1.466,3.505s-0.967,2.463-1.476,3.835h5.916
		c-0.513-1.374-1.011-2.653-1.495-3.841C334.323,112.013,333.83,110.846,333.329,109.7z"/>
	<path class="st0" d="M352.799,120.8c-0.08,0.067-0.2,0.144-0.36,0.229c-0.159,0.088-0.356,0.178-0.59,0.271
		c-0.233,0.094-0.5,0.171-0.8,0.229c-0.3,0.061-0.637,0.091-1.01,0.091c-0.601,0-1.181-0.093-1.74-0.28
		c-0.56-0.187-1.05-0.48-1.47-0.88s-0.757-0.917-1.01-1.55c-0.254-0.633-0.381-1.403-0.381-2.311c0-0.732,0.113-1.412,0.341-2.039
		c0.227-0.627,0.55-1.17,0.97-1.631c0.42-0.459,0.933-0.82,1.54-1.08c0.606-0.26,1.29-0.39,2.05-0.39c0.96,0,1.73,0.063,2.31,0.19
		c0.58,0.127,1.057,0.25,1.431,0.369v9.44c0,1.546-0.4,2.649-1.2,3.31s-2.007,0.99-3.62,0.99c-0.667,0-1.27-0.05-1.81-0.15
		c-0.54-0.1-1.004-0.217-1.391-0.35l0.261-1.18c0.319,0.146,0.756,0.273,1.31,0.38c0.553,0.106,1.11,0.16,1.67,0.16
		c1.227,0,2.116-0.237,2.67-0.71c0.554-0.474,0.83-1.283,0.83-2.43V120.8z M352.779,112.92c-0.228-0.066-0.521-0.13-0.881-0.189
		c-0.359-0.061-0.873-0.09-1.54-0.09c-0.56,0-1.057,0.096-1.489,0.289c-0.434,0.193-0.804,0.467-1.11,0.82s-0.54,0.773-0.7,1.26
		c-0.16,0.487-0.239,1.023-0.239,1.61c0,0.68,0.093,1.263,0.279,1.75s0.431,0.884,0.73,1.19s0.643,0.529,1.029,0.67
		c0.387,0.14,0.78,0.209,1.181,0.209c0.586,0,1.123-0.086,1.609-0.26c0.487-0.173,0.863-0.373,1.131-0.6V112.92z"/>
	<path class="st0" d="M356.898,116.82c0-0.906,0.131-1.697,0.391-2.37s0.6-1.237,1.02-1.69s0.9-0.789,1.44-1.01
		s1.097-0.33,1.67-0.33c1.267,0,2.276,0.414,3.03,1.24c0.753,0.826,1.13,2.1,1.13,3.82c0,0.106-0.004,0.213-0.011,0.319
		s-0.017,0.207-0.029,0.3h-7.26c0.039,1.268,0.353,2.24,0.939,2.92c0.587,0.681,1.521,1.021,2.8,1.021
		c0.707,0,1.267-0.066,1.681-0.2c0.413-0.133,0.713-0.246,0.899-0.34l0.24,1.12c-0.187,0.106-0.537,0.233-1.05,0.38
		c-0.514,0.146-1.117,0.221-1.811,0.221c-0.906,0-1.68-0.135-2.319-0.4c-0.641-0.268-1.167-0.641-1.58-1.12
		c-0.414-0.479-0.714-1.05-0.9-1.71S356.898,117.607,356.898,116.82z M364.239,116c-0.027-1.08-0.28-1.92-0.761-2.52
		c-0.479-0.601-1.16-0.9-2.04-0.9c-0.467,0-0.883,0.094-1.25,0.279c-0.366,0.188-0.687,0.438-0.96,0.75
		c-0.273,0.314-0.486,0.678-0.64,1.091s-0.243,0.847-0.271,1.3H364.239z"/>
	<path class="st0" d="M377.299,116.84c0,0.813-0.117,1.554-0.35,2.221c-0.233,0.666-0.561,1.232-0.98,1.699s-0.917,0.83-1.49,1.09
		s-1.207,0.391-1.899,0.391c-0.693,0-1.327-0.131-1.9-0.391s-1.07-0.623-1.49-1.09s-0.746-1.033-0.979-1.699
		c-0.233-0.667-0.351-1.407-0.351-2.221c0-0.812,0.117-1.553,0.351-2.22s0.56-1.237,0.979-1.71s0.917-0.84,1.49-1.1
		c0.573-0.261,1.207-0.391,1.9-0.391c0.692,0,1.326,0.13,1.899,0.391c0.573,0.26,1.07,0.627,1.49,1.1s0.747,1.043,0.98,1.71
		C377.182,115.287,377.299,116.027,377.299,116.84z M375.919,116.84c0-1.293-0.3-2.322-0.9-3.09c-0.6-0.767-1.413-1.15-2.439-1.15
		c-1.027,0-1.84,0.384-2.44,1.15c-0.6,0.768-0.899,1.797-0.899,3.09s0.3,2.32,0.899,3.08c0.601,0.76,1.413,1.141,2.44,1.141
		c1.026,0,1.84-0.381,2.439-1.141C375.619,119.16,375.919,118.133,375.919,116.84z"/>
	<path class="st0" d="M386.858,120.8c-0.08,0.067-0.2,0.144-0.36,0.229c-0.159,0.088-0.356,0.178-0.59,0.271
		c-0.233,0.094-0.5,0.171-0.8,0.229c-0.3,0.061-0.637,0.091-1.01,0.091c-0.601,0-1.181-0.093-1.74-0.28
		c-0.56-0.187-1.05-0.48-1.47-0.88s-0.757-0.917-1.01-1.55c-0.254-0.633-0.381-1.403-0.381-2.311c0-0.732,0.113-1.412,0.341-2.039
		c0.227-0.627,0.55-1.17,0.97-1.631c0.42-0.459,0.933-0.82,1.54-1.08c0.606-0.26,1.29-0.39,2.05-0.39c0.96,0,1.73,0.063,2.31,0.19
		c0.58,0.127,1.057,0.25,1.431,0.369v9.44c0,1.546-0.4,2.649-1.2,3.31s-2.007,0.99-3.62,0.99c-0.667,0-1.27-0.05-1.81-0.15
		c-0.54-0.1-1.004-0.217-1.391-0.35l0.261-1.18c0.319,0.146,0.756,0.273,1.31,0.38c0.553,0.106,1.11,0.16,1.67,0.16
		c1.227,0,2.116-0.237,2.67-0.71c0.554-0.474,0.83-1.283,0.83-2.43V120.8z M386.839,112.92c-0.228-0.066-0.521-0.13-0.881-0.189
		c-0.359-0.061-0.873-0.09-1.54-0.09c-0.56,0-1.057,0.096-1.489,0.289c-0.434,0.193-0.804,0.467-1.11,0.82s-0.54,0.773-0.7,1.26
		c-0.16,0.487-0.239,1.023-0.239,1.61c0,0.68,0.093,1.263,0.279,1.75s0.431,0.884,0.73,1.19s0.643,0.529,1.029,0.67
		c0.387,0.14,0.78,0.209,1.181,0.209c0.586,0,1.123-0.086,1.609-0.26c0.487-0.173,0.863-0.373,1.131-0.6V112.92z"/>
	<path class="st0" d="M395.099,111.46c0.427,0,0.83,0.034,1.21,0.101s0.643,0.133,0.79,0.199l-0.26,1.12
		c-0.107-0.054-0.324-0.11-0.65-0.17c-0.327-0.06-0.757-0.09-1.29-0.09c-0.56,0-1.01,0.04-1.35,0.12
		c-0.341,0.08-0.563,0.146-0.671,0.199V122h-1.3v-9.859c0.333-0.146,0.793-0.297,1.38-0.451
		C393.545,111.537,394.259,111.46,395.099,111.46z"/>
	<path class="st0" d="M402.198,111.42c0.68,0,1.256,0.098,1.729,0.29c0.474,0.193,0.856,0.46,1.15,0.8
		c0.293,0.34,0.506,0.744,0.64,1.211c0.133,0.467,0.2,0.973,0.2,1.52v6.52c-0.134,0.04-0.327,0.084-0.58,0.131
		c-0.254,0.047-0.547,0.096-0.88,0.149c-0.334,0.054-0.703,0.097-1.11,0.13c-0.406,0.033-0.823,0.051-1.25,0.051
		c-0.547,0-1.05-0.061-1.51-0.181s-0.86-0.31-1.2-0.569c-0.34-0.261-0.606-0.594-0.8-1c-0.193-0.407-0.29-0.904-0.29-1.49
		c0-0.561,0.106-1.041,0.32-1.44c0.213-0.399,0.513-0.729,0.899-0.99c0.387-0.26,0.847-0.45,1.38-0.569
		c0.533-0.121,1.113-0.181,1.74-0.181c0.187,0,0.384,0.011,0.59,0.03c0.207,0.02,0.407,0.047,0.601,0.08s0.359,0.066,0.5,0.1
		c0.14,0.033,0.236,0.063,0.29,0.09v-0.64c0-0.36-0.027-0.71-0.08-1.05c-0.054-0.34-0.17-0.646-0.351-0.92
		c-0.18-0.273-0.433-0.493-0.76-0.66c-0.327-0.166-0.757-0.25-1.29-0.25c-0.76,0-1.327,0.053-1.7,0.16
		c-0.373,0.106-0.646,0.193-0.819,0.26l-0.181-1.141c0.227-0.105,0.577-0.206,1.051-0.299
		C400.961,111.467,401.531,111.42,402.198,111.42z M402.318,121.061c0.506,0,0.949-0.018,1.329-0.051
		c0.381-0.033,0.703-0.076,0.971-0.13v-3.64c-0.147-0.066-0.38-0.137-0.7-0.211c-0.32-0.072-0.76-0.109-1.32-0.109
		c-0.319,0-0.653,0.023-1,0.07s-0.667,0.146-0.96,0.3s-0.533,0.363-0.72,0.63c-0.187,0.268-0.28,0.62-0.28,1.061
		c0,0.387,0.063,0.713,0.19,0.979c0.126,0.267,0.307,0.479,0.54,0.64c0.232,0.16,0.513,0.277,0.84,0.351
		C401.534,121.023,401.904,121.061,402.318,121.061z"/>
	<path class="st0" d="M410.537,125.7h-1.3V112.02c0.387-0.133,0.88-0.26,1.48-0.379c0.6-0.121,1.359-0.181,2.28-0.181
		c0.76,0,1.449,0.124,2.069,0.37s1.153,0.604,1.601,1.07c0.446,0.467,0.793,1.033,1.04,1.699c0.246,0.668,0.369,1.42,0.369,2.26
		c0,0.787-0.103,1.511-0.31,2.17c-0.207,0.66-0.51,1.228-0.91,1.701c-0.399,0.473-0.89,0.843-1.47,1.109s-1.243,0.4-1.99,0.4
		c-0.68,0-1.27-0.098-1.77-0.29c-0.5-0.193-0.864-0.377-1.091-0.55V125.7z M410.537,120.141c0.12,0.093,0.271,0.193,0.45,0.299
		c0.181,0.107,0.391,0.207,0.63,0.301c0.24,0.094,0.5,0.17,0.78,0.23c0.28,0.059,0.573,0.09,0.88,0.09c0.641,0,1.177-0.11,1.61-0.33
		c0.433-0.221,0.783-0.521,1.05-0.9s0.46-0.826,0.58-1.34s0.18-1.057,0.18-1.631c0-1.359-0.34-2.402-1.02-3.129s-1.58-1.09-2.7-1.09
		c-0.64,0-1.157,0.029-1.55,0.09c-0.394,0.06-0.69,0.123-0.891,0.189V120.141z"/>
	<path class="st0" d="M420.897,122v-15.279l1.3-0.24v5.479c0.427-0.16,0.86-0.283,1.301-0.37c0.439-0.086,0.88-0.13,1.319-0.13
		c0.801,0,1.467,0.113,2,0.34c0.533,0.228,0.96,0.55,1.28,0.97s0.543,0.924,0.67,1.51c0.127,0.588,0.19,1.234,0.19,1.941V122h-1.3
		v-5.359c0-0.734-0.051-1.354-0.15-1.861c-0.1-0.506-0.267-0.92-0.5-1.239s-0.544-0.55-0.93-0.69
		c-0.388-0.14-0.874-0.209-1.46-0.209c-0.228,0-0.471,0.02-0.73,0.06s-0.503,0.083-0.729,0.13c-0.228,0.047-0.431,0.097-0.61,0.15
		c-0.18,0.053-0.297,0.093-0.351,0.119v8.9H420.897z"/>
	<path class="st0" d="M433.878,108.54c0,0.307-0.094,0.55-0.28,0.729c-0.187,0.181-0.413,0.271-0.68,0.271
		c-0.268,0-0.494-0.09-0.681-0.271c-0.187-0.18-0.279-0.423-0.279-0.729s0.093-0.55,0.279-0.729
		c0.187-0.181,0.413-0.271,0.681-0.271c0.267,0,0.493,0.09,0.68,0.271C433.784,107.99,433.878,108.233,433.878,108.54z M433.577,122
		h-1.3v-10.34h1.3V122z"/>
	<path class="st0" d="M441.298,122.221c-0.8,0-1.507-0.127-2.12-0.381c-0.613-0.253-1.123-0.616-1.53-1.09
		c-0.406-0.473-0.717-1.04-0.93-1.7c-0.213-0.659-0.32-1.39-0.32-2.19c0-0.812,0.11-1.553,0.33-2.219
		c0.221-0.667,0.537-1.24,0.95-1.721s0.913-0.85,1.5-1.109c0.587-0.261,1.247-0.391,1.98-0.391c0.56,0,1.083,0.047,1.569,0.141
		c0.487,0.093,0.863,0.213,1.13,0.359l-0.34,1.12c-0.267-0.134-0.566-0.24-0.899-0.319c-0.334-0.08-0.78-0.121-1.34-0.121
		c-1.147,0-2.018,0.371-2.61,1.11c-0.594,0.74-0.89,1.79-0.89,3.149c0,0.614,0.066,1.178,0.199,1.69
		c0.134,0.514,0.351,0.954,0.65,1.32s0.687,0.653,1.16,0.86c0.473,0.207,1.05,0.31,1.729,0.31c0.561,0,1.03-0.063,1.41-0.19
		c0.38-0.126,0.656-0.236,0.83-0.33l0.28,1.121c-0.24,0.133-0.617,0.263-1.13,0.389
		C442.395,122.156,441.857,122.221,441.298,122.221z"/>
	<path class="st0" d="M449.357,111.42c0.68,0,1.256,0.098,1.729,0.29c0.474,0.193,0.856,0.46,1.15,0.8
		c0.293,0.34,0.506,0.744,0.64,1.211c0.133,0.467,0.2,0.973,0.2,1.52v6.52c-0.134,0.04-0.327,0.084-0.58,0.131
		c-0.254,0.047-0.547,0.096-0.88,0.149c-0.334,0.054-0.703,0.097-1.11,0.13c-0.406,0.033-0.823,0.051-1.25,0.051
		c-0.547,0-1.05-0.061-1.51-0.181s-0.86-0.31-1.2-0.569c-0.34-0.261-0.606-0.594-0.8-1c-0.193-0.407-0.29-0.904-0.29-1.49
		c0-0.561,0.106-1.041,0.32-1.44c0.213-0.399,0.513-0.729,0.899-0.99c0.387-0.26,0.847-0.45,1.38-0.569
		c0.533-0.121,1.113-0.181,1.74-0.181c0.187,0,0.384,0.011,0.59,0.03c0.207,0.02,0.407,0.047,0.601,0.08s0.359,0.066,0.5,0.1
		c0.14,0.033,0.236,0.063,0.29,0.09v-0.64c0-0.36-0.027-0.71-0.08-1.05c-0.054-0.34-0.17-0.646-0.351-0.92
		c-0.18-0.273-0.433-0.493-0.76-0.66c-0.327-0.166-0.757-0.25-1.29-0.25c-0.76,0-1.327,0.053-1.7,0.16
		c-0.373,0.106-0.646,0.193-0.819,0.26l-0.181-1.141c0.227-0.105,0.577-0.206,1.051-0.299
		C448.12,111.467,448.69,111.42,449.357,111.42z M449.478,121.061c0.506,0,0.949-0.018,1.329-0.051
		c0.381-0.033,0.703-0.076,0.971-0.13v-3.64c-0.147-0.066-0.38-0.137-0.7-0.211c-0.32-0.072-0.76-0.109-1.32-0.109
		c-0.319,0-0.653,0.023-1,0.07s-0.667,0.146-0.96,0.3s-0.533,0.363-0.72,0.63c-0.187,0.268-0.28,0.62-0.28,1.061
		c0,0.387,0.063,0.713,0.19,0.979c0.126,0.267,0.307,0.479,0.54,0.64c0.232,0.16,0.513,0.277,0.84,0.351
		C448.693,121.023,449.063,121.061,449.478,121.061z"/>
	<path class="st0" d="M459.017,122.18c-0.439-0.014-0.823-0.07-1.149-0.17c-0.327-0.1-0.601-0.253-0.82-0.46
		c-0.22-0.206-0.387-0.474-0.5-0.8s-0.17-0.736-0.17-1.23v-12.799l1.3-0.24v13c0,0.319,0.03,0.576,0.09,0.77
		c0.061,0.193,0.15,0.347,0.271,0.46s0.276,0.196,0.47,0.25s0.423,0.101,0.689,0.14L459.017,122.18z"/>
	<path class="st0" d="M474.277,121.68c-0.388,0.134-0.881,0.26-1.48,0.381c-0.6,0.119-1.36,0.18-2.28,0.18
		c-0.76,0-1.449-0.123-2.069-0.37s-1.153-0.603-1.601-1.07c-0.446-0.466-0.793-1.032-1.04-1.7c-0.247-0.666-0.37-1.42-0.37-2.26
		c0-0.787,0.104-1.51,0.311-2.17c0.206-0.66,0.51-1.23,0.91-1.71c0.399-0.479,0.89-0.853,1.47-1.12c0.58-0.267,1.243-0.4,1.99-0.4
		c0.68,0,1.27,0.098,1.77,0.291s0.863,0.377,1.09,0.549v-5.559l1.301-0.24V121.68z M472.977,113.54
		c-0.12-0.093-0.27-0.193-0.449-0.3c-0.181-0.107-0.391-0.207-0.631-0.301c-0.239-0.093-0.5-0.17-0.779-0.229
		c-0.28-0.06-0.573-0.09-0.88-0.09c-0.641,0-1.178,0.113-1.61,0.34c-0.434,0.228-0.783,0.53-1.05,0.91
		c-0.268,0.38-0.46,0.827-0.58,1.34c-0.12,0.514-0.18,1.058-0.18,1.63c0,1.36,0.34,2.404,1.02,3.131s1.58,1.09,2.7,1.09
		c0.64,0,1.156-0.031,1.55-0.09c0.394-0.061,0.69-0.124,0.89-0.191V113.54z"/>
	<path class="st0" d="M480.856,111.42c0.68,0,1.256,0.098,1.729,0.29c0.474,0.193,0.856,0.46,1.15,0.8
		c0.293,0.34,0.506,0.744,0.64,1.211c0.133,0.467,0.2,0.973,0.2,1.52v6.52c-0.134,0.04-0.327,0.084-0.58,0.131
		c-0.254,0.047-0.547,0.096-0.88,0.149c-0.334,0.054-0.703,0.097-1.11,0.13c-0.406,0.033-0.823,0.051-1.25,0.051
		c-0.547,0-1.05-0.061-1.51-0.181s-0.86-0.31-1.2-0.569c-0.34-0.261-0.606-0.594-0.8-1c-0.193-0.407-0.29-0.904-0.29-1.49
		c0-0.561,0.106-1.041,0.32-1.44c0.213-0.399,0.513-0.729,0.899-0.99c0.387-0.26,0.847-0.45,1.38-0.569
		c0.533-0.121,1.113-0.181,1.74-0.181c0.187,0,0.384,0.011,0.59,0.03c0.207,0.02,0.407,0.047,0.601,0.08s0.359,0.066,0.5,0.1
		c0.14,0.033,0.236,0.063,0.29,0.09v-0.64c0-0.36-0.027-0.71-0.08-1.05c-0.054-0.34-0.17-0.646-0.351-0.92
		c-0.18-0.273-0.433-0.493-0.76-0.66c-0.327-0.166-0.757-0.25-1.29-0.25c-0.76,0-1.327,0.053-1.7,0.16
		c-0.373,0.106-0.646,0.193-0.819,0.26l-0.181-1.141c0.227-0.105,0.577-0.206,1.051-0.299
		C479.619,111.467,480.189,111.42,480.856,111.42z M480.977,121.061c0.506,0,0.949-0.018,1.329-0.051
		c0.381-0.033,0.703-0.076,0.971-0.13v-3.64c-0.147-0.066-0.38-0.137-0.7-0.211c-0.32-0.072-0.76-0.109-1.32-0.109
		c-0.319,0-0.653,0.023-1,0.07s-0.667,0.146-0.96,0.3s-0.533,0.363-0.72,0.63c-0.187,0.268-0.28,0.62-0.28,1.061
		c0,0.387,0.063,0.713,0.19,0.979c0.126,0.267,0.307,0.479,0.54,0.64c0.232,0.16,0.513,0.277,0.84,0.351
		C480.192,121.023,480.562,121.061,480.977,121.061z"/>
	<path class="st0" d="M489.117,111.66h4.119v1.1h-4.119v5.5c0,0.587,0.05,1.063,0.149,1.43c0.101,0.367,0.243,0.65,0.43,0.851
		c0.188,0.2,0.414,0.333,0.681,0.399c0.267,0.067,0.56,0.101,0.88,0.101c0.547,0,0.986-0.063,1.32-0.19
		c0.333-0.126,0.593-0.242,0.779-0.35l0.32,1.08c-0.187,0.12-0.514,0.257-0.98,0.41c-0.467,0.152-0.973,0.23-1.52,0.23
		c-0.64,0-1.177-0.084-1.61-0.25c-0.433-0.168-0.779-0.421-1.04-0.761c-0.26-0.34-0.443-0.763-0.55-1.271
		c-0.106-0.506-0.16-1.105-0.16-1.799v-9.521l1.301-0.24V111.66z"/>
	<path class="st0" d="M498.776,111.42c0.68,0,1.256,0.098,1.729,0.29c0.474,0.193,0.856,0.46,1.15,0.8
		c0.293,0.34,0.506,0.744,0.64,1.211c0.133,0.467,0.2,0.973,0.2,1.52v6.52c-0.134,0.04-0.327,0.084-0.58,0.131
		c-0.254,0.047-0.547,0.096-0.88,0.149c-0.334,0.054-0.703,0.097-1.11,0.13c-0.406,0.033-0.823,0.051-1.25,0.051
		c-0.547,0-1.05-0.061-1.51-0.181s-0.86-0.31-1.2-0.569c-0.34-0.261-0.606-0.594-0.8-1c-0.193-0.407-0.29-0.904-0.29-1.49
		c0-0.561,0.106-1.041,0.32-1.44c0.213-0.399,0.513-0.729,0.899-0.99c0.387-0.26,0.847-0.45,1.38-0.569
		c0.533-0.121,1.113-0.181,1.74-0.181c0.187,0,0.384,0.011,0.59,0.03c0.207,0.02,0.407,0.047,0.601,0.08s0.359,0.066,0.5,0.1
		c0.14,0.033,0.236,0.063,0.29,0.09v-0.64c0-0.36-0.027-0.71-0.08-1.05c-0.054-0.34-0.17-0.646-0.351-0.92
		c-0.18-0.273-0.433-0.493-0.76-0.66c-0.327-0.166-0.757-0.25-1.29-0.25c-0.76,0-1.327,0.053-1.7,0.16
		c-0.373,0.106-0.646,0.193-0.819,0.26l-0.181-1.141c0.227-0.105,0.577-0.206,1.051-0.299
		C497.539,111.467,498.109,111.42,498.776,111.42z M498.896,121.061c0.506,0,0.949-0.018,1.329-0.051
		c0.381-0.033,0.703-0.076,0.971-0.13v-3.64c-0.147-0.066-0.38-0.137-0.7-0.211c-0.32-0.072-0.76-0.109-1.32-0.109
		c-0.319,0-0.653,0.023-1,0.07s-0.667,0.146-0.96,0.3s-0.533,0.363-0.72,0.63c-0.187,0.268-0.28,0.62-0.28,1.061
		c0,0.387,0.063,0.713,0.19,0.979c0.126,0.267,0.307,0.479,0.54,0.64c0.232,0.16,0.513,0.277,0.84,0.351
		C498.112,121.023,498.482,121.061,498.896,121.061z"/>
	<path class="st0" d="M517.049,111.66c0.119,0.666,0.275,1.376,0.469,2.129c0.192,0.754,0.404,1.52,0.637,2.3s0.479,1.55,0.739,2.31
		c0.261,0.761,0.525,1.475,0.793,2.142c0.228-0.507,0.468-1.122,0.723-1.849c0.254-0.726,0.508-1.491,0.763-2.297
		c0.254-0.807,0.491-1.619,0.712-2.441c0.221-0.82,0.404-1.586,0.552-2.293h1.28c-0.48,2.031-1.006,3.885-1.574,5.564
		c-0.569,1.678-1.195,3.27-1.878,4.775h-1.205c-0.202-0.471-0.414-0.996-0.636-1.576c-0.222-0.578-0.45-1.199-0.685-1.857
		c-0.235-0.66-0.463-1.353-0.683-2.078c-0.22-0.727-0.43-1.469-0.63-2.229c-0.199,0.762-0.408,1.506-0.627,2.233
		s-0.445,1.421-0.68,2.081c-0.233,0.66-0.461,1.279-0.682,1.859s-0.431,1.103-0.629,1.566h-1.25
		c-0.685-1.506-1.31-3.099-1.875-4.779c-0.567-1.68-1.089-3.533-1.567-5.561h1.38c0.147,0.707,0.331,1.47,0.553,2.289
		c0.221,0.82,0.458,1.633,0.713,2.439c0.254,0.807,0.512,1.569,0.772,2.29s0.505,1.335,0.732,1.841
		c0.255-0.663,0.511-1.376,0.768-2.137c0.256-0.762,0.497-1.529,0.723-2.303s0.438-1.537,0.637-2.291
		c0.198-0.754,0.377-1.463,0.535-2.129H517.049z"/>
	<path class="st0" d="M527.476,108.54c0,0.307-0.094,0.55-0.28,0.729c-0.187,0.181-0.413,0.271-0.68,0.271
		c-0.268,0-0.494-0.09-0.681-0.271c-0.187-0.18-0.279-0.423-0.279-0.729s0.093-0.55,0.279-0.729
		c0.187-0.181,0.413-0.271,0.681-0.271c0.267,0,0.493,0.09,0.68,0.271C527.382,107.99,527.476,108.233,527.476,108.54z M527.175,122
		h-1.3v-10.34h1.3V122z"/>
	<path class="st0" d="M537.035,112.721c-0.312,0.342-0.714,0.82-1.206,1.435s-1.018,1.298-1.576,2.053s-1.112,1.542-1.66,2.362
		s-1.029,1.597-1.444,2.33h6.067v1.1h-7.561v-0.939c0.345-0.656,0.772-1.377,1.282-2.166s1.041-1.564,1.592-2.328
		c0.552-0.764,1.089-1.48,1.613-2.15c0.524-0.672,0.962-1.223,1.312-1.656h-5.5v-1.1h7.08V112.721z"/>
	<path class="st0" d="M542.855,111.42c0.68,0,1.256,0.098,1.729,0.29c0.474,0.193,0.856,0.46,1.15,0.8
		c0.293,0.34,0.506,0.744,0.64,1.211c0.133,0.467,0.2,0.973,0.2,1.52v6.52c-0.134,0.04-0.327,0.084-0.58,0.131
		c-0.254,0.047-0.547,0.096-0.88,0.149c-0.334,0.054-0.703,0.097-1.11,0.13c-0.406,0.033-0.823,0.051-1.25,0.051
		c-0.547,0-1.05-0.061-1.51-0.181s-0.86-0.31-1.2-0.569c-0.34-0.261-0.606-0.594-0.8-1c-0.193-0.407-0.29-0.904-0.29-1.49
		c0-0.561,0.106-1.041,0.32-1.44c0.213-0.399,0.513-0.729,0.899-0.99c0.387-0.26,0.847-0.45,1.38-0.569
		c0.533-0.121,1.113-0.181,1.74-0.181c0.187,0,0.384,0.011,0.59,0.03c0.207,0.02,0.407,0.047,0.601,0.08s0.359,0.066,0.5,0.1
		c0.14,0.033,0.236,0.063,0.29,0.09v-0.64c0-0.36-0.027-0.71-0.08-1.05c-0.054-0.34-0.17-0.646-0.351-0.92
		c-0.18-0.273-0.433-0.493-0.76-0.66c-0.327-0.166-0.757-0.25-1.29-0.25c-0.76,0-1.327,0.053-1.7,0.16
		c-0.373,0.106-0.646,0.193-0.819,0.26l-0.181-1.141c0.227-0.105,0.577-0.206,1.051-0.299
		C541.618,111.467,542.188,111.42,542.855,111.42z M542.976,121.061c0.506,0,0.949-0.018,1.329-0.051
		c0.381-0.033,0.703-0.076,0.971-0.13v-3.64c-0.147-0.066-0.38-0.137-0.7-0.211c-0.32-0.072-0.76-0.109-1.32-0.109
		c-0.319,0-0.653,0.023-1,0.07s-0.667,0.146-0.96,0.3s-0.533,0.363-0.72,0.63c-0.187,0.268-0.28,0.62-0.28,1.061
		c0,0.387,0.063,0.713,0.19,0.979c0.126,0.267,0.307,0.479,0.54,0.64c0.232,0.16,0.513,0.277,0.84,0.351
		C542.191,121.023,542.562,121.061,542.976,121.061z"/>
	<path class="st0" d="M553.415,111.46c0.427,0,0.83,0.034,1.21,0.101s0.643,0.133,0.79,0.199l-0.26,1.12
		c-0.107-0.054-0.324-0.11-0.65-0.17c-0.327-0.06-0.757-0.09-1.29-0.09c-0.56,0-1.01,0.04-1.35,0.12
		c-0.341,0.08-0.563,0.146-0.671,0.199V122h-1.3v-9.859c0.333-0.146,0.793-0.297,1.38-0.451
		C551.861,111.537,552.575,111.46,553.415,111.46z"/>
	<path class="st0" d="M565.596,121.68c-0.388,0.134-0.881,0.26-1.48,0.381c-0.6,0.119-1.36,0.18-2.28,0.18
		c-0.76,0-1.449-0.123-2.069-0.37s-1.153-0.603-1.601-1.07c-0.446-0.466-0.793-1.032-1.04-1.7c-0.247-0.666-0.37-1.42-0.37-2.26
		c0-0.787,0.104-1.51,0.311-2.17c0.206-0.66,0.51-1.23,0.91-1.71c0.399-0.479,0.89-0.853,1.47-1.12c0.58-0.267,1.243-0.4,1.99-0.4
		c0.68,0,1.27,0.098,1.77,0.291s0.863,0.377,1.09,0.549v-5.559l1.301-0.24V121.68z M564.295,113.54
		c-0.12-0.093-0.27-0.193-0.449-0.3c-0.181-0.107-0.391-0.207-0.631-0.301c-0.239-0.093-0.5-0.17-0.779-0.229
		c-0.28-0.06-0.573-0.09-0.88-0.09c-0.641,0-1.178,0.113-1.61,0.34c-0.434,0.228-0.783,0.53-1.05,0.91
		c-0.268,0.38-0.46,0.827-0.58,1.34c-0.12,0.514-0.18,1.058-0.18,1.63c0,1.36,0.34,2.404,1.02,3.131s1.58,1.09,2.7,1.09
		c0.64,0,1.156-0.031,1.55-0.09c0.394-0.061,0.69-0.124,0.89-0.191V113.54z"/>
	<path class="st0" d="M570.874,121.141c0,0.307-0.097,0.566-0.29,0.779s-0.463,0.32-0.81,0.32s-0.617-0.107-0.81-0.32
		c-0.193-0.213-0.29-0.473-0.29-0.779s0.097-0.567,0.29-0.781c0.192-0.213,0.463-0.319,0.81-0.319s0.616,0.106,0.81,0.319
		C570.777,120.573,570.874,120.834,570.874,121.141z"/>
</g>
<g>
	<defs>
		<polygon id="SVGID_1_" points="138,17.211 115.205,5.756 104.57,24.084 93.144,25.612 81.703,53.87 26.723,76.017 55.748,152.389
			50.403,161.553 68.733,172.244 85.536,159.262 107.567,154.679 138,140.168 		"/>
	</defs>
	<clipPath id="SVGID_2_">
		<use xlink:href="#SVGID_1_"  style="overflow:visible;"/>
	</clipPath>
	<path class="st5" d="M116.854,260H-14v8.935C-14,279.59-5.634,289,5.021,289h177.173c10.655,0,18.806-9.41,18.806-20.065V242
		h-64.876C135.645,253,127.201,260,116.854,260z"/>
	<path class="st5" d="M201,242h44.493c10.655,0,18.507-8.693,18.507-19.348V163h-63V242z"/>
	<path class="st5" d="M182,163v1.117c0,10.656-7.528,19.883-18.183,19.883H136v57.029c0,0.307,0.138-0.029,0.124,0.971H201v-79H182z
		"/>
	<path class="st5" d="M136,184h27.817c10.655,0,18.183-9.227,18.183-19.883V163h-46V184z"/>
	<path class="st5" d="M5.021,143H11v-11H5.702C-4.954,132-13,123.045-13,112.39V89h-6.481C-30.136,89-38,97.441-38,108.098v132.932
		C-38,251.684-30.136,260-19.481,260H-14v-98.813C-14,150.531-5.634,143,5.021,143z"/>
	<path class="st5" d="M136.124,242H68.319C57.664,242,49,233.307,49,222.652V211H30.205C19.55,211,11,201.998,11,191.342V143H5.021
		C-5.634,143-14,150.531-14,161.187V260h130.854C127.201,260,135.645,253,136.124,242z"/>
	<path class="st5" d="M123,191.342c0,10.656-7.743,19.658-18.398,19.658H49v11.652C49,233.307,57.664,242,68.319,242h67.804
		c0.014-1-0.124-0.664-0.124-0.971V184h-13V191.342z"/>
	<rect x="11" y="132" class="st5" width="38" height="11"/>
	<path class="st5" d="M11,143v48.342C11,201.998,19.55,211,30.205,211H49v-68H11z"/>
	<rect x="49" y="132" class="st2" width="33" height="11"/>
	<path class="st9" d="M123,191.342V184h-20.648C91.696,184,82,174.773,82,164.117V143H49v68h55.602
		C115.257,211,123,201.998,123,191.342z"/>
	<path class="st5" d="M126.854,163c-1.005,0-1.854-0.084-3.854-0.234V184h13v-21H126.854z"/>
	<rect x="82" y="132" class="st5" width="25" height="11"/>
	<path class="st1" d="M107,143.699V143H82v21.117C82,174.773,91.696,184,102.352,184H123v-21.234
		C115,161.342,107,153.348,107,143.699z"/>
	<path class="st5" d="M265.911,30H234v72h11.493c10.655,0,18.507,8.373,18.507,19.029V163h1.911
		c10.655,0,18.089-8.646,18.089-19.301V48.882C284,38.226,276.566,30,265.911,30z"/>
	<path class="st5" d="M245.493,102H234v10.39c0,10.655-8.48,19.61-19.136,19.61H182v9.916c12,0.479,19,8.922,19,19.271V163h63
		v-41.971C264,110.373,256.148,102,245.493,102z"/>
	<path class="st5" d="M201,163v-1.813c0-10.349-7-18.792-19-19.271V163H201z"/>
	<path class="st5" d="M136,143h46.194c0.308,0-0.194-1.098-0.194-1.084V132h-46V143z"/>
	<path class="st5" d="M136,143v20h46v-21.084c0-0.014,0.502,1.084,0.194,1.084H136z"/>
	<rect x="123" y="132" class="st5" width="13" height="11"/>
	<path class="st5" d="M123,162.766c2,0.15,2.849,0.234,3.854,0.234H136v-20h-13V162.766z"/>
	<rect x="107" y="132" class="st10" width="16" height="11"/>
	<path class="st4" d="M107,143v0.699c0,9.648,8,17.643,16,19.066V143H107z"/>
	<path class="st7" d="M11,75.427C11,64.772,19.55,55,30.205,55h56.893c3.529-4,9.047-6,15.254-6h5.215c0.127-11,8.711-19,19.288-19
		H234v-70.28C234-50.936,225.52-59,214.864-59H5.702C-4.954-59-13-50.936-13-40.28V89h24V75.427z"/>
	<path class="st10" d="M82,67.939C82,63.491,84.568,60,87.098,55H30.205C19.55,55,11,64.772,11,75.427V89h71V67.939z"/>
	<path class="st5" d="M107,56.359v-7.477c0-0.08,0.565,0.118,0.566,0.118h-5.215c-6.207,0-11.725,2-15.254,6h17.504
		C105.608,55,107,56.211,107,56.359z"/>
	<path class="st4" d="M82,89h25V56.359c0-0.148-1.392-1.359-2.398-1.359H87.098C84.568,60,82,63.491,82,67.939V89z"/>
	<path class="st5" d="M5.702,132H11V89h-24v23.39C-13,123.045-4.954,132,5.702,132z"/>
	<path class="st3" d="M49,121.029C49,110.373,57.664,102,68.319,102H82V89H11v43h38V121.029z"/>
	<path class="st9" d="M82,102H68.319C57.664,102,49,110.373,49,121.029V132h33V102z"/>
	<rect x="82" y="89" class="st1" width="25" height="13"/>
	<rect x="82" y="102" class="st7" width="25" height="30"/>
	<path class="st10" d="M107.566,49h56.25C174.472,49,182,57.284,182,67.939V102h52V30H126.854C116.277,30,107.693,38,107.566,49z"/>
	<path class="st5" d="M182,132h32.864C225.52,132,234,123.045,234,112.39V102h-52V132z"/>
	<path class="st1" d="M107,56.359c9,1.424,16,9.418,16,19.067v14.708C129,92.182,133.214,97,135.068,102H182V67.939
		C182,57.284,174.472,49,163.817,49h-56.25c-0.001,0-0.566-0.197-0.566-0.118V56.359z"/>
	<path class="st5" d="M135.068,102c0.696,2,0.932,3.867,0.932,6.098V132h46v-30H135.068z"/>
	<path class="st6" d="M123,90.135V75.427c0-9.649-7-17.644-16-19.067V89h9.854C119.34,89,121,89.279,123,90.135z"/>
	<path class="st10" d="M123,90.135V102h12.068C133.214,97,129,92.182,123,90.135z"/>
	<path class="st1" d="M123,132h13v-23.902c0-2.23-0.236-4.098-0.932-6.098H123V132z"/>
	<path class="st5" d="M123,102V90.135c-2-0.856-3.66-1.135-6.146-1.135H107v13H123z"/>
	<rect x="107" y="102" class="st3" width="16" height="30"/>
	<path class="st8" d="M264.425,30H234v-68.721C234-50.412,224.184-60,212.493-60H3.639C-8.054-60-17-50.412-17-38.721V88h-4.565
		C-33.256,88-43,97.748-43,109.439v133.248C-43,254.379-33.256,264-21.565,264H-17v6.945C-17,282.636-8.054,292,3.639,292H181.18
		c11.691,0,21.82-9.364,21.82-21.055V246h40.806c11.691,0,21.194-9.951,21.194-21.643v-57.475c12-0.309,20-9.691,20-21.188V50.633
		C285,38.942,276.117,30,264.425,30z M-13-38.721C-13-48.306-5.948-56,3.639-56h208.854C222.078-56,229-48.306,229-38.721V30
		H125.067c-10.979,0-20.034,8-21.097,19h-3.341c-6.535,0-12.388,2-16.28,6H28.84C17.148,55,8,65.672,8,77.363V88h-21V-38.721z
		 M261,163h-58v-0.102c0-10.979-9-20.034-20-21.098V135h29.493c11.691,0,21.507-9.689,21.507-21.38V105h9.806
		c9.586,0,17.194,7.837,17.194,17.423V163z M-13,92H8v39H3.639C-5.948,131-13,123.205-13,113.62V92z M11,92h68v10H66.262
		C54.571,102,45,110.731,45,122.423V131H11V92z M162.089,52C171.674,52,179,60.141,179,69.727V102h-44.718
		C132.353,97,129,92.895,124,90.619V77.363c0-10.182-7-18.708-16-20.74V52H162.089z M121,89.086c-2-0.55-4.204-1.086-6.262-1.086
		H108V60.545c7,1.954,13,8.753,13,16.818V89.086z M114.738,92c2.082,0,4.262,0.424,6.262,1.097V102h-13V92H114.738z M132,109.439
		V131h-8v-26h7.557C131.924,106,132,107.919,132,109.439z M108,146h13v16.514c-8-1.953-13-8.753-13-16.818V146z M108,135h13v7h-13
		V135z M104,142H83v-7h21V142z M108,131v-26h13v26H108z M124,146h8v17h-6.933c-0.195,0-1.067,0.072-1.067,0.065V146z M124,142v-7h8
		v7H124z M124,102v-6.947c3,1.572,4.718,2.947,6.052,6.947H124z M104,102H83V92h21V102z M104,105v26H83v-26H104z M79,131H49v-8.577
		C49,112.837,56.676,105,66.262,105H79V131z M79,135v7H49v-7H79z M79,146v19.551C79,177.243,88.938,187,100.629,187H121v6.046
		c0,9.586-8.132,16.954-17.718,16.954H49v-64H79z M100.629,184C91.043,184,83,175.138,83,165.551V146h21v-0.305
		c0,10.183,7,18.709,17,20.74V184H100.629z M124,166.883c0,0.006,0.872,0.117,1.067,0.117H132v17h-8V166.883z M136,167h43.415
		c-0.69,9-8.195,17-17.326,17H136V167z M136,163v-17h43v17H136z M179,142h-43v-7h43V142z M136,131v-21.561
		c0-1.51-0.221-3.439-0.521-4.439H179v26H136z M104,56.175c0-0.005-0.522-1.175-0.718-1.175H89.776c2.977-1,6.75-3,10.853-3H104
		V56.175z M103.282,61c0.196,0,0.718-1.013,0.718-1.006V88H83V69.727C83,66.117,84.352,63,86.242,61H103.282z M79,69.727V88H11
		V77.363C11,67.778,19.254,61,28.84,61h52.969C80.291,63,79,66.213,79,69.727z M45,135v7H11v-7H45z M45,146v64H28.84
		C19.254,210,11,202.632,11,193.046V146H45z M28.84,214H45v10.357C45,236.049,54.571,246,66.262,246h65.619
		c-1.374,8-8.536,14-17.143,14H-13v-97.102C-13,153.312-5.948,146,3.639,146H8v47.046C8,204.738,17.148,214,28.84,214z M66.262,241
		C56.676,241,49,233.943,49,224.357V214h54.282c11.692,0,20.718-9.262,20.718-20.954V187h8v54H66.262z M136,187h26.089
		c11.238,0,20.457-9,21.154-20H198v74h-62V187z M183,163v-17.353c9,1.045,15,8.38,15,17.251V163H183z M229,113.62
		c0,9.585-6.922,17.38-16.507,17.38H183v-26h46V113.62z M183,102V69.727C183,58.035,173.779,49,162.089,49h-54.272
		c1.044-9,8.38-16,17.251-16H229v69H183z M-21.565,260C-31.15,260-38,252.273-38,242.688V109.439C-38,99.854-31.15,92-21.565,92H-17
		v21.62C-17,125.311-8.054,135,3.639,135H8v7H3.639C-8.054,142-17,151.207-17,162.898V260H-21.565z M198,270.945
		c0,9.586-7.233,18.055-16.82,18.055H3.639C-5.948,289-13,280.531-13,270.945V264h127.738c10.716,0,19.595-8,21.003-18H198V270.945z
		 M243.806,241H203v-74h58v57.357C261,233.943,253.392,241,243.806,241z M282,145.695c0,9.391-7,17.061-17,17.37v-40.643
		c0-11.691-9.503-20.423-21.194-20.423H234V33h30.425C274.012,33,282,41.047,282,50.633V145.695z"/>
</g>
</svg>
