<svg version="1.1" id="movies" xmlns="http://www.w3.org/2000/svg" xmlns:xlink="http://www.w3.org/1999/xlink" x="0px" y="0px"
	 width="32px" height="32px" viewBox="0 0 32 32" style="enable-background:new 0 0 32 32;" xml:space="preserve">
<style type="text/css">
<![CDATA[
	.st0{fill:#FFFFFF;}
	.st1{fill:#A53437;}
]]>
</style>
<circle class="st1" cx="16.055" cy="15.725" r="16"/>
<g>
	<path class="st0" d="M25.487,5.725v0.762c0,0.088-0.071,0.16-0.159,0.16h-2.1c-0.088,0-0.16-0.072-0.16-0.16V5.725H22.5v2.115
		c0,0.295-0.236,0.533-0.532,0.533H9.338c-0.294,0-0.533-0.238-0.533-0.533V5.789H8.238v0.698c0,0.088-0.072,0.16-0.16,0.16H5.782
		c-0.088,0-0.159-0.072-0.159-0.16V5.789H5.055v20.088h0.568v-0.764c0-0.088,0.071-0.159,0.159-0.159h2.296
		c0.088,0,0.16,0.071,0.16,0.159v0.764h0.567v-2.052c0-0.294,0.238-0.532,0.533-0.532h12.63c0.296,0,0.532,0.238,0.532,0.532v1.987
		h0.568v-0.699c0-0.088,0.072-0.159,0.16-0.159h2.1c0.088,0,0.159,0.071,0.159,0.159v0.699h0.567V5.725H25.487z M8.238,23.732
		c0,0.088-0.072,0.16-0.16,0.16H5.782c-0.088,0-0.159-0.072-0.159-0.16V22.24c0-0.089,0.071-0.16,0.159-0.16h2.296
		c0.088,0,0.16,0.071,0.16,0.16V23.732z M8.238,20.857c0,0.09-0.072,0.16-0.16,0.16H5.782c-0.088,0-0.159-0.07-0.159-0.16v-1.492
		c0-0.088,0.071-0.16,0.159-0.16h2.296c0.088,0,0.16,0.072,0.16,0.16V20.857z M8.238,17.984c0,0.088-0.072,0.159-0.16,0.159H5.782
		c-0.088,0-0.159-0.071-0.159-0.159V16.49c0-0.088,0.071-0.159,0.159-0.159h2.296c0.088,0,0.16,0.071,0.16,0.159V17.984z
		 M8.238,15.109c0,0.088-0.072,0.16-0.16,0.16H5.782c-0.088,0-0.159-0.072-0.159-0.16v-1.493c0-0.087,0.071-0.159,0.159-0.159h2.296
		c0.088,0,0.16,0.072,0.16,0.159V15.109z M8.238,12.235c0,0.087-0.072,0.16-0.16,0.16H5.782c-0.088,0-0.159-0.072-0.159-0.16v-1.493
		c0-0.088,0.071-0.16,0.159-0.16h2.296c0.088,0,0.16,0.072,0.16,0.16V12.235z M8.238,9.361c0,0.088-0.072,0.16-0.16,0.16H5.782
		c-0.088,0-0.159-0.072-0.159-0.16V7.868c0-0.088,0.071-0.16,0.159-0.16h2.296c0.088,0,0.16,0.072,0.16,0.16V9.361z M22.5,21.156
		c0,0.294-0.236,0.533-0.532,0.533H9.338c-0.294,0-0.533-0.239-0.533-0.533V10.48c0-0.293,0.238-0.533,0.533-0.533h12.63
		c0.296,0,0.532,0.239,0.532,0.533V21.156z M25.487,23.732c0,0.088-0.071,0.16-0.159,0.16h-2.1c-0.088,0-0.16-0.072-0.16-0.16V22.24
		c0-0.089,0.072-0.16,0.16-0.16h2.1c0.088,0,0.159,0.071,0.159,0.16V23.732z M25.487,20.857c0,0.09-0.071,0.16-0.159,0.16h-2.1
		c-0.088,0-0.16-0.07-0.16-0.16v-1.492c0-0.088,0.072-0.16,0.16-0.16h2.1c0.088,0,0.159,0.072,0.159,0.16V20.857z M25.487,17.984
		c0,0.088-0.071,0.159-0.159,0.159h-2.1c-0.088,0-0.16-0.071-0.16-0.159V16.49c0-0.088,0.072-0.159,0.16-0.159h2.1
		c0.088,0,0.159,0.071,0.159,0.159V17.984z M25.487,15.109c0,0.088-0.071,0.16-0.159,0.16h-2.1c-0.088,0-0.16-0.072-0.16-0.16
		v-1.493c0-0.087,0.072-0.159,0.16-0.159h2.1c0.088,0,0.159,0.072,0.159,0.159V15.109z M25.487,12.235
		c0,0.087-0.071,0.16-0.159,0.16h-2.1c-0.088,0-0.16-0.072-0.16-0.16v-1.493c0-0.088,0.072-0.16,0.16-0.16h2.1
		c0.088,0,0.159,0.072,0.159,0.16V12.235z M25.487,9.361c0,0.088-0.071,0.16-0.159,0.16h-2.1c-0.088,0-0.16-0.072-0.16-0.16V7.868
		c0-0.088,0.072-0.16,0.16-0.16h2.1c0.088,0,0.159,0.072,0.159,0.16V9.361z"/>
	<path class="st0" d="M13.092,13.185c0-0.154,0.081-0.299,0.212-0.38c0.132-0.082,0.297-0.09,0.437-0.021l5.109,2.547
		c0.152,0.075,0.248,0.23,0.248,0.401c0,0.17-0.096,0.324-0.248,0.4L13.74,18.68c-0.139,0.069-0.305,0.062-0.437-0.02
		c-0.131-0.082-0.212-0.227-0.212-0.381V13.185z"/>
</g>
</svg>
