<svg version="1.1" id="aboriginal_communities" xmlns="http://www.w3.org/2000/svg" xmlns:xlink="http://www.w3.org/1999/xlink"
	 x="0px" y="0px" width="32px" height="32px" viewBox="0 0 32 32" style="enable-background:new 0 0 32 32;" xml:space="preserve">
<style type="text/css">
<![CDATA[
	.st0{fill:#FFFFFF;}
	.st1{fill:#DE6D26;}
]]>
</style>
<circle class="st1" cx="16.055" cy="15.725" r="16"/>
<g>
	<path class="st0" d="M17.055,13.062c-1.468,0-2.662,1.194-2.662,2.662s1.194,2.662,2.662,2.662s2.662-1.194,2.662-2.662
		S18.522,13.062,17.055,13.062z M17.055,16.832c-0.61,0-1.107-0.497-1.107-1.107s0.497-1.107,1.107-1.107s1.107,0.497,1.107,1.107
		S17.665,16.832,17.055,16.832z"/>
	<path class="st0" d="M17.055,10.397c-2.938,0-5.327,2.39-5.327,5.327s2.39,5.327,5.327,5.327s5.327-2.39,5.327-5.327
		S19.992,10.397,17.055,10.397z M17.055,19.496c-2.08,0-3.771-1.691-3.771-3.771s1.691-3.771,3.771-3.771s3.771,1.691,3.771,3.771
		S19.135,19.496,17.055,19.496z"/>
	<path class="st0" d="M17.055,7.732c-4.407,0-7.992,3.585-7.992,7.992s3.585,7.992,7.992,7.992s7.992-3.585,7.992-7.992
		S21.462,7.732,17.055,7.732z M17.055,22.162c-3.549,0-6.438-2.889-6.438-6.438s2.889-6.438,6.438-6.438s6.438,2.889,6.438,6.438
		S20.604,22.162,17.055,22.162z"/>
	<path class="st0" d="M12.555,7.729c0.49,0,0.5-0.398,0.5-0.888V2.398c0-0.49-0.01-0.889-0.5-0.889s-0.5,0.398-0.5,0.889v4.442
		C12.055,7.331,12.064,7.729,12.555,7.729z"/>
	<path class="st0" d="M15.055,6.841c0.49,0,1-0.398,1-0.889V1.51c0-0.49-0.51-0.888-1-0.888c-0.491,0-1,0.398-1,0.888v4.442
		C14.055,6.442,14.563,6.841,15.055,6.841z"/>
	<path class="st0" d="M18.055,6.841c0.49,0,1-0.398,1-0.889V1.51c0-0.49-0.51-0.888-1-0.888s-1,0.398-1,0.888v4.442
		C17.055,6.442,17.564,6.841,18.055,6.841z"/>
	<path class="st0" d="M20.555,7.729c0.49,0,0.5-0.398,0.5-0.888V2.398c0-0.49-0.01-0.889-0.5-0.889s-0.5,0.398-0.5,0.889v4.442
		C20.055,7.331,20.064,7.729,20.555,7.729z"/>
	<path class="st0" d="M20.555,23.275c-0.49,0-0.5,0.398-0.5,0.889v4.442c0,0.491,0.01,0.888,0.5,0.888s0.5-0.396,0.5-0.888v-4.442
		C21.055,23.674,21.045,23.275,20.555,23.275z"/>
	<path class="st0" d="M18.055,24.608c-0.49,0-1,0.398-1,0.889v4.442c0,0.49,0.51,0.889,1,0.889s1-0.398,1-0.889v-4.442
		C19.055,25.007,18.545,24.608,18.055,24.608z"/>
	<path class="st0" d="M15.055,24.608c-0.491,0-1,0.398-1,0.889v4.442c0,0.49,0.509,0.889,1,0.889c0.49,0,1-0.398,1-0.889v-4.442
		C16.055,25.007,15.545,24.608,15.055,24.608z"/>
	<path class="st0" d="M12.555,23.721c-0.49,0-0.5,0.397-0.5,0.888v4.442c0,0.49,0.01,0.889,0.5,0.889s0.5-0.398,0.5-0.889v-4.442
		C13.055,24.118,13.045,23.721,12.555,23.721z"/>
</g>
</svg>
