<svg version="1.1" id="photographs" xmlns="http://www.w3.org/2000/svg" xmlns:xlink="http://www.w3.org/1999/xlink" x="0px"
	 y="0px" width="32px" height="32px" viewBox="0 0 32 32" style="enable-background:new 0 0 32 32;" xml:space="preserve">
<style type="text/css">
<![CDATA[
	.st0{fill:#FFFFFF;}
	.st1{fill:#A53437;}
]]>
</style>
<circle class="st1" cx="16.055" cy="15.725" r="16"/>
<g>
	<circle class="st0" cx="17.949" cy="16.739" r="3.384"/>
	<path class="st0" d="M25.639,8.725h-2.277l-1.962-2h-6.766l-1.962,2h-2.617v-2c0-0.309-0.678,0-0.985,0H8.055v2H6.471
		c-1.059,0-2.416,1.229-2.416,2.288v3.712v1v1v1v4.674c0,1.06,1.357,1.326,2.416,1.326h0.584v-7v-1v-1v-4h1v5h4.492
		c0.572-3.067,2.772-4.284,5.402-4.284c2.629,0,4.83,1.217,5.402,4.284h3.703v-4.712C27.055,9.953,26.697,8.725,25.639,8.725z
		 M12.055,12.187c0,0.297-0.24,0.538-0.537,0.538H9.592c-0.297,0-0.537-0.241-0.537-0.538v-0.924c0-0.297,0.24-0.538,0.537-0.538
		h1.926c0.297,0,0.537,0.241,0.537,0.538V12.187z"/>
	<path class="st0" d="M23.498,16.989c0,3.064-2.484,5.425-5.549,5.425S12.4,20.117,12.4,17.052c0-0.173,0.009-0.327,0.024-0.327
		h-4.37v7h17.584c1.059,0,1.416-0.267,1.416-1.326v-5.674h-3.581C23.489,16.725,23.498,16.816,23.498,16.989z"/>
</g>
</svg>
