<svg version="1.1" id="bus" xmlns="http://www.w3.org/2000/svg" xmlns:xlink="http://www.w3.org/1999/xlink" x="0px" y="0px"
	 width="32px" height="32px" viewBox="0 0 32 32" style="enable-background:new 0 0 32 32;" xml:space="preserve">
<style type="text/css">
<![CDATA[
	.st0{fill:#1E8646;}
	.st1{fill:#FFFFFF;}
]]>
</style>
<circle class="st0" cx="16.055" cy="15.725" r="16"/>
<path class="st1" d="M26.643,9.846V9.818h-2.404c-0.01-0.242-0.018-0.483-0.025-0.727c-0.015-0.402-0.201-1.436-1.623-2.334
	c-1.883-1.188-4.662-1.375-6.895-1.375c-7.912,0-8.257,3.33-8.27,3.71C7.417,9.335,7.408,9.576,7.398,9.818
	c-2.551,0-2.227-0.001-2.402,0.006v0.021c-0.242,0.069-0.413,0.274-0.413,0.514v3.646c0,0.299,0.265,0.541,0.589,0.541h0.615
	c0.324,0,0.589-0.242,0.589-0.541v-3.207h0.979c-0.213,4.336-0.356,5.062-0.336,9.012c0.005,0.92,0.01,1.871-0.02,2.806
	c-0.025,0.761,0.636,1.533,1.773,1.562v1.69c0,0.472,0.385,0.856,0.857,0.856h1.103c0.473,0,0.856-0.385,0.856-0.856v-1.641
	c2.943,0.044,5.516,0.044,8.458,0v1.641c0,0.472,0.384,0.856,0.856,0.856h1.103c0.473,0,0.856-0.385,0.856-0.856v-1.69
	c1.133-0.027,1.799-0.795,1.774-1.561c-0.03-0.936-0.024-1.887-0.02-2.807c0.021-3.962-0.124-4.717-0.335-9.012h0.979v3.207
	c0,0.299,0.264,0.541,0.589,0.541h0.614c0.326,0,0.59-0.242,0.59-0.541v-3.646C27.055,10.12,26.884,9.915,26.643,9.846z
	 M11.292,7.678c0-0.298,0.242-0.541,0.54-0.541h7.975c0.297,0,0.539,0.243,0.539,0.541v0.045c0,0.297-0.242,0.539-0.539,0.539
	h-7.975c-0.298,0-0.54-0.242-0.54-0.539V7.678z M13.195,22.074c-0.006,0.019-0.064,0.072-0.245,0.072H9.998
	c-0.812,0-1.654-1.331-1.431-1.551c0.021-0.021,0.077-0.057,0.201-0.059c3.022,0.41,3.612,0.314,4.25,1.154
	C13.178,21.9,13.206,22.039,13.195,22.074z M21.641,22.146h-2.953c-0.182,0-0.238-0.054-0.245-0.072
	c-0.011-0.035,0.019-0.174,0.177-0.383c0.639-0.84,1.227-0.744,4.25-1.154c0.125,0.002,0.18,0.037,0.201,0.059
	C23.295,20.816,22.449,22.146,21.641,22.146z M22.604,17.154c-4.298,0.063-9.03,0.066-13.571,0c-0.332-0.006-0.59-0.295-0.584-0.628
	c0.031-2.078,0.204-4.181,0.235-6.268C8.689,9.923,8.952,9.649,9.27,9.649V9.521l0.007,0.128c4.334,0.065,8.718,0.065,13.093,0
	c0.316,0,0.578,0.273,0.584,0.608c0.031,2.084,0.205,4.189,0.236,6.269C23.193,16.869,22.928,17.148,22.604,17.154z"/>
</svg>
