<svg version="1.1" id="shipwreck" xmlns="http://www.w3.org/2000/svg" xmlns:xlink="http://www.w3.org/1999/xlink" x="0px" y="0px"
	 width="32px" height="32px" viewBox="0 0 32 32" style="enable-background:new 0 0 32 32;" xml:space="preserve">
<style type="text/css">
<![CDATA[
	.st0{fill:#8E5B24;}
	.st1{fill:#FFFFFF;}
]]>
</style>
<circle class="st0" cx="16.055" cy="15.725" r="16"/>
<path class="st0" d="M30.055,22.84v-0.574c0,0.006-0.299,0.016-0.416,0.016c-1.949,0-3.553-0.724-4.643-1.838
	c-1.091,1.114-2.95,1.838-4.899,1.838c-1.948,0-3.657-0.724-4.747-1.838c-1.094,1.114-2.76,1.838-4.709,1.838
	c-1.947,0-3.549-0.724-4.639-1.838c-1.018,1.039-2.215,1.711-3.947,1.801v0.021v0.199c0.342,0.616,0.732,1.199,1.149,1.764
	c1.081-0.275,1.88-0.85,2.647-1.632c1.09,1.113,2.774,1.836,4.722,1.836s3.661-0.723,4.755-1.836
	c1.09,1.113,2.834,1.836,4.781,1.836c1.949,0,3.73-0.723,4.82-1.836c0.948,0.968,2.363,1.638,3.965,1.798
	C29.272,23.898,29.055,23.38,30.055,22.84z"/>
<g>
	<path class="st1" d="M10.354,14.125l3.338-2.503l3.258,3.995l-7.072,4.576c0.367,0.062,0.749,0.101,1.149,0.101
		c1.811,0,3.357-0.671,4.373-1.706c1.012,1.035,2.599,1.706,4.408,1.706s3.536-0.671,4.549-1.706
		c0.333,0.341,0.723,0.637,1.154,0.888c0.91-2.232,1.543-4.624,1.543-5.749c0-2-1-4-1-4l-7.415,4.798l-3.346-4.103l3.061-2.295
		l-0.6-0.8l-3.093,2.32l-2.547-3.123l-1.55,1.264l2.496,3.061l-3.306,2.479L10.354,14.125z"/>
	<path class="st1" d="M28.668,22.292c-1.809,0-3.298-0.671-4.311-1.706c-0.009,0.009-0.021,0.018-0.029,0.026
		c-0.01-0.01-0.021-0.017-0.031-0.026c-0.628,0.64-1.501,1.14-2.505,1.428l0.013,0.002c-0.63,0.178-1.307,0.276-1.996,0.276
		c-0.59,0-1.152-0.078-1.684-0.21c0.002,0,0.003-0.001,0.005-0.002c-0.527-0.13-1.02-0.321-1.467-0.558
		c-0.072-0.039-0.141-0.081-0.21-0.122c-0.106-0.062-0.207-0.128-0.306-0.195c-0.272-0.188-0.525-0.393-0.746-0.619
		c-0.003,0.003-0.007,0.006-0.01,0.009c-0.003-0.003-0.008-0.006-0.011-0.009c-1.014,1.031-2.601,1.701-4.405,1.703
		c-0.203-0.001-0.403-0.01-0.598-0.027c-0.004,0-0.009,0-0.013-0.001c-1.51-0.143-2.759-0.77-3.645-1.675
		c-0.916,0.935-1.998,1.538-3.526,1.652c0.32,0.63,0.682,1.234,1.088,1.807c0.92-0.269,1.626-0.775,2.299-1.459
		c1.012,1.033,2.576,1.704,4.385,1.704c1.536,0,2.912-0.487,3.915-1.267c0.353,0.097,0.769,0.164,1.177,0.127
		c0.992,0.703,2.314,1.14,3.764,1.14c1.81,0,3.463-0.671,4.477-1.704c0.824,0.842,2.038,1.425,3.411,1.619
		c0.442-0.605,0.84-1.245,1.185-1.918C28.812,22.29,28.721,22.292,28.668,22.292z"/>
</g>
</svg>
