<?xml version="1.0" encoding="utf-8"?>
<!-- Generator: Adobe Illustrator 15.0.0, SVG Export Plug-In . SVG Version: 6.00 Build 0)  -->
<!DOCTYPE svg PUBLIC "-//W3C//DTD SVG 1.1//EN" "http://www.w3.org/Graphics/SVG/1.1/DTD/svg11.dtd">
<svg version="1.1" id="icon_x5F_makemap" xmlns="http://www.w3.org/2000/svg" xmlns:xlink="http://www.w3.org/1999/xlink" x="0px"
	 y="0px" width="100px" height="100px" viewBox="0 0 100 100" style="enable-background:new 0 0 100 100;" xml:space="preserve">
<style type="text/css">
<![CDATA[
	.st0{fill:#4E4E4E;}
]]>
</style>
<path class="st0" d="M80.697,35.686c-0.818,1.939-1.646,4.008-2.41,6l6.404,2.717v43.962L53.066,74.951V30.987l10.527,4.465
	c-1.352-3.182-2.664-5.969-3.596-7.375l-0.037-0.057c-0.42-0.635-0.758-1.146-1.027-1.564l-9.096-3.859L8.52,40.124v58.003
	L49.838,80.6l41.316,17.527V40.124L80.697,35.686z M46.605,74.951L14.983,88.365V44.403l31.623-13.416V74.951z M85.496,15.952
	c0-7.346-5.955-13.301-13.303-13.301c-7.344,0-13.297,5.955-13.297,13.301c0,2.896,1.125,5.537,2.5,8.014
	c1,1.791,8.664,17.703,10.797,24.775c2.135-7.072,9.799-22.986,10.799-24.775C84.354,21.52,85.496,18.848,85.496,15.952z
	 M72.193,23.004c-3.895,0-7.053-3.158-7.053-7.053c0-3.898,3.158-7.055,7.053-7.055c3.896,0,7.059,3.157,7.059,7.055
	C79.252,19.846,76.09,23.004,72.193,23.004z M21.928,58.498c1.459,1.299,1.467,1.703,0.008,2.977
	c-1.299,1.43-1.719,1.438-2.993,0.008c-1.429-1.273-1.421-1.693,0.008-2.994C20.223,57.031,20.627,57.039,21.928,58.498z
	 M26.848,53.859c-1.428,1.299-1.436,1.719-0.007,2.992c1.274,1.428,1.692,1.422,2.995-0.006c1.457-1.275,1.449-1.682-0.01-2.979
	C28.526,52.406,28.121,52.4,26.848,53.859z M35.336,56.551c-1.431,1.299-1.437,1.721-0.008,2.992
	c1.273,1.43,1.692,1.422,2.992-0.006c1.459-1.275,1.451-1.68-0.006-2.979C37.015,55.1,36.61,55.092,35.336,56.551z M40.019,65.027
	c-1.429,1.299-1.436,1.721-0.005,2.994c1.273,1.428,1.691,1.42,2.99-0.008c1.461-1.275,1.454-1.68-0.006-2.98
	C41.698,63.574,41.293,63.568,40.019,65.027z M57.012,66.293c-1.428,1.301-1.436,1.719-0.006,2.992
	c1.273,1.43,1.691,1.422,2.992-0.006c1.459-1.273,1.453-1.678-0.006-2.979C58.691,64.842,58.285,64.834,57.012,66.293z
	 M65.803,63.658c-1.43,1.301-1.438,1.721-0.01,2.994c1.275,1.428,1.695,1.42,2.994-0.008c1.459-1.271,1.453-1.678-0.008-2.98
	C67.479,62.207,67.074,62.199,65.803,63.658z M70.162,55.15c-1.43,1.301-1.436,1.721-0.006,2.992
	c1.271,1.43,1.691,1.422,2.992-0.006c1.459-1.271,1.451-1.678-0.008-2.979C71.842,53.699,71.438,53.691,70.162,55.15z"/>
</svg>
