<svg version="1.1" id="industry_icon" xmlns="http://www.w3.org/2000/svg" xmlns:xlink="http://www.w3.org/1999/xlink" x="0px"
	 y="0px" width="32px" height="32px" viewBox="0 0 32 32" style="enable-background:new 0 0 32 32;" xml:space="preserve">
<style type="text/css">
<![CDATA[
	.st0{fill:#1267B0;}
	.st1{fill:#FFFFFF;}
]]>
</style>
<circle class="st0" cx="16.055" cy="15.725" r="16"/>
<path class="st1" d="M19.859,15.723l-5.391,2.676v-2.676l-4.615,2.291L9.074,7.656H6.378L5.055,25.184H10.4V25.18h4.068h5.391h5.395
	v-9.457l-5.395,2.676V15.723z M13.176,22.48h-1.35v-1.352h1.35V22.48z M13.176,19.775h-1.35v-1.35h1.35V19.775z M22.611,18.426h1.35
	v1.35h-1.35V18.426z M22.611,21.129h1.35v1.352h-1.35V21.129z M18.566,22.48h-1.349v-1.352h1.349V22.48z M18.566,19.775h-1.349
	v-1.35h1.349V19.775z M9.074,6.307c0-0.74,0.601-1.346,1.351-1.346h0.118c0.273-0.782,1.023-1.348,1.9-1.348
	c0.338,0,0.647,0.082,0.919,0.223c0.433-0.928,1.362-1.572,2.453-1.572c1.487,0,2.699,1.21,2.699,2.697
	c0.738,0,1.345,0.605,1.345,1.346c0,0.75-0.606,1.35-1.345,1.35h-8.09C9.675,7.656,9.074,7.057,9.074,6.307z M20.617,7.826
	c0.209,0,0.407,0.055,0.573,0.14c0.269-0.577,0.855-0.981,1.536-0.981c0.933,0,1.68,0.754,1.68,1.684
	c0.468,0,0.848,0.378,0.848,0.841c0,0.468-0.38,0.844-0.848,0.844h-5.05c-0.466,0-0.842-0.376-0.842-0.844
	c0-0.463,0.376-0.841,0.842-0.841h0.071C19.603,8.179,20.068,7.826,20.617,7.826z"/>
</svg>
