<svg version="1.1" id="icon_x5F_aboutus" xmlns="http://www.w3.org/2000/svg" xmlns:xlink="http://www.w3.org/1999/xlink" x="0px"
	 y="0px" width="100px" height="100px" viewBox="0 0 100 100" style="enable-background:new 0 0 100 100;" xml:space="preserve">
<style type="text/css">
<![CDATA[
	.st0{fill:#4E4E4E;}
]]>
</style>
<g>
	<path class="st0" d="M24.855,74.017l-17.447-0.05c-0.166,0-0.317,0.101-0.376,0.258c-0.062,0.154-0.021,0.332,0.104,0.441
		l4.552,4.158l-10.5,10.501c-0.395,0.394-0.395,1.032,0,1.425l7.436,7.437c0.395,0.396,1.031,0.394,1.424,0l10.502-10.501
		l4.158,4.553c0.111,0.123,0.287,0.164,0.441,0.103c0.155-0.059,0.258-0.21,0.258-0.375l-0.047-17.447
		C25.356,74.242,25.134,74.017,24.855,74.017z"/>
	<path class="st0" d="M74.561,25.314l17.449,0.047c0.166,0,0.317-0.102,0.378-0.258c0.06-0.154,0.019-0.331-0.105-0.443
		l-4.553-4.156l10.503-10.502c0.393-0.395,0.393-1.031,0-1.424l-7.438-7.438c-0.393-0.395-1.031-0.392-1.422,0L78.869,11.643
		L74.713,7.09c-0.111-0.121-0.289-0.164-0.443-0.102c-0.154,0.061-0.258,0.209-0.258,0.375l0.047,17.449
		C74.061,25.089,74.284,25.312,74.561,25.314z"/>
	<path class="st0" d="M11.688,20.504L7.136,24.66c-0.125,0.112-0.165,0.289-0.104,0.443c0.061,0.156,0.21,0.258,0.376,0.258
		l17.447-0.047c0.278-0.002,0.501-0.226,0.504-0.502l0.047-17.449c0-0.166-0.103-0.314-0.258-0.375
		c-0.154-0.062-0.33-0.02-0.441,0.102l-4.158,4.553L10.047,1.141c-0.393-0.392-1.029-0.392-1.424,0L1.188,8.578
		c-0.395,0.393-0.395,1.031,0,1.424L11.688,20.504z"/>
	<path class="st0" d="M98.232,89.325L87.729,78.824l4.553-4.158c0.124-0.111,0.165-0.287,0.105-0.441
		c-0.061-0.157-0.212-0.258-0.378-0.258l-17.449,0.05c-0.274,0-0.5,0.226-0.5,0.502l-0.049,17.447c0,0.165,0.104,0.316,0.258,0.375
		c0.154,0.062,0.332,0.021,0.443-0.103l4.156-4.553l10.504,10.501c0.393,0.394,1.029,0.394,1.422,0l7.438-7.437
		C98.627,90.355,98.625,89.719,98.232,89.325z"/>
	<path class="st0" d="M49.708,21.531c-15.636,0-28.314,12.678-28.314,28.316s12.679,28.316,28.314,28.316
		c15.64,0,28.318-12.678,28.318-28.316S65.348,21.531,49.708,21.531z M49.708,73.303c-12.953,0-23.455-10.501-23.455-23.455
		c0-12.955,10.502-23.457,23.455-23.457c12.956,0,23.459,10.502,23.459,23.457C73.167,62.802,62.664,73.303,49.708,73.303z"/>
	<path class="st0" d="M49.629,55.047c2.104,0,3.812-1.73,3.812-4.932c0-2.469-1.708-4.475-3.812-4.475
		c-2.106,0-3.813,2.006-3.813,4.475C45.815,53.316,47.522,55.047,49.629,55.047z"/>
	<path class="st0" d="M49.629,41.76c2.104,0,3.812-1.729,3.812-4.931c0-2.47-1.708-4.474-3.812-4.474
		c-2.106,0-3.813,2.004-3.813,4.474C45.815,40.03,47.522,41.76,49.629,41.76z"/>
	<path class="st0" d="M62.324,48.646c2.107,0,3.814-1.729,3.814-4.928c0-2.473-1.707-4.475-3.814-4.475
		c-2.105,0-3.812,2.002-3.812,4.475C58.512,46.918,60.219,48.646,62.324,48.646z"/>
	<path class="st0" d="M69.016,50.948C68.845,50.263,68.223,50,67.514,50h-3.395l-1.711,6h-0.166l-1.711-6h-3.396
		c-0.707,0-1.328,0.263-1.498,0.948c-0.176,0.719-0.332,1.345-0.473,2.104c1.957,0.146,3.611,1.471,4.088,3.402
		c0.77,3.124,1.23,6.686,1.354,10.455c4.619-2.962,7.958-7.654,8.987-13.252C69.43,52.693,69.236,51.85,69.016,50.948z"/>
	<path class="st0" d="M37.092,48.646c2.107,0,3.814-1.729,3.814-4.928c0-2.473-1.707-4.475-3.814-4.475
		c-2.104,0-3.811,2.002-3.811,4.475C33.281,46.918,34.988,48.646,37.092,48.646z"/>
	<path class="st0" d="M54.815,55H51.42l-1.71,8h-0.165l-1.709-8h-3.396c-0.711,0-1.331,0.961-1.5,1.648
		c-0.839,3.406-1.261,7.609-1.299,11.504c2.472,1.077,5.199,1.796,8.067,1.796c2.806,0,5.478-0.514,7.905-1.545
		c-0.033-3.92-0.453-8.359-1.297-11.783C56.146,55.933,55.525,55,54.815,55z"/>
	<path class="st0" d="M43.781,50.948C43.612,50.263,42.99,50,42.283,50h-3.396l-1.711,6H37.01l-1.709-6h-3.396
		c-0.709,0-1.329,0.263-1.5,0.948c-0.221,0.903-0.415,1.729-0.577,2.696c1.019,5.531,4.289,10.218,8.827,13.187
		c0.129-3.731,0.587-7.31,1.348-10.401c0.49-1.988,2.225-3.288,4.251-3.369C44.113,52.303,43.957,51.661,43.781,50.948z"/>
</g>
</svg>
